<svg xmlns="http://www.w3.org/2000/svg" viewBox="0 0 64 64" role="img" aria-label="SZ">
  <defs>
    <linearGradient id="g" x1="8" y1="8" x2="56" y2="56" gradientUnits="userSpaceOnUse">
      <stop stop-color="#7aa2f7"/>
      <stop offset="1" stop-color="#bb9af7"/>
    </linearGradient>
  </defs>
  <rect width="64" height="64" rx="17" fill="#1a1b26"/>
  <rect x="2" y="2" width="60" height="60" rx="15" fill="none" stroke="url(#g)" stroke-opacity=".7" stroke-width="2"/>
  <path d="M17 23.5c0-4.3 3.6-7.5 9.3-7.5 3.9 0 7.1 1.2 9.5 3.2l-3.5 4.2c-1.8-1.4-3.8-2.1-6.1-2.1-2.2 0-3.5.8-3.5 2.1 0 1.5 1.4 2 5.5 3 6.4 1.5 9.2 4.1 9.2 8.6 0 4.9-4 8-10.2 8-4.8 0-8.9-1.5-11.7-4.3l3.8-4c2.2 2 4.8 3 8 3 2.6 0 4.1-.8 4.1-2.3 0-1.4-1.3-2.1-5.1-3-6.1-1.5-9.3-3.7-9.3-8.9Z" fill="#eef1ff"/>
  <path d="M39 16.5h9v4.7L42.8 37H49v5.5H38v-4.7l5.2-15.8H39v-5.5Z" fill="url(#g)"/>
</svg>
